<?xml version="1.0" standalone="no"?>
<!DOCTYPE svg PUBLIC "-//W3C//DTD SVG 20010904//EN"
 "http://www.w3.org/TR/2001/REC-SVG-20010904/DTD/svg10.dtd">
<svg version="1.0" xmlns="http://www.w3.org/2000/svg"
 width="286.000000pt" height="231.000000pt" viewBox="0 0 286.000000 231.000000"
 preserveAspectRatio="xMidYMid meet">

<g transform="translate(0.000000,231.000000) scale(0.100000,-0.100000)"
fill="#000000" stroke="none">
<path d="M520 1980 c-131 -13 -247 -96 -307 -217 -25 -52 -28 -68 -28 -158 0
-89 3 -106 28 -156 34 -70 119 -152 194 -187 56 -26 64 -27 268 -30 l210 -3
70 118 c39 65 72 121 73 126 2 4 -106 7 -239 7 -224 0 -246 2 -285 20 -86 42
-93 161 -11 210 30 19 53 20 364 20 l333 0 41 65 c37 59 150 175 171 175 4 0
8 5 8 10 0 11 -781 12 -890 0z"/>
<path d="M1680 1980 c-90 -11 -169 -43 -240 -97 -81 -60 -105 -93 -255 -338
-71 -115 -211 -344 -312 -509 -231 -376 -225 -364 -231 -458 -6 -98 10 -163
58 -238 74 -113 175 -165 326 -164 85 0 96 2 168 37 51 26 88 52 113 83 21 24
144 233 274 463 129 231 244 432 253 446 24 37 39 19 35 -39 -3 -25 -2 -46 2
-46 4 0 292 223 317 245 4 3 -305 245 -314 245 -5 0 -9 -28 -9 -62 l0 -63 -65
-6 c-69 -6 -95 -16 -122 -46 -14 -16 -286 -488 -484 -842 -76 -137 -104 -164
-170 -165 -52 -1 -91 25 -118 78 -15 32 -17 44 -8 74 6 21 95 172 197 337 102
165 241 389 308 499 191 314 187 311 477 311 204 0 205 0 261 -28 31 -15 78
-50 103 -77 174 -186 125 -460 -104 -577 -50 -25 -67 -28 -181 -31 l-126 -4
-71 -121 -71 -122 190 -3 c215 -3 263 5 389 65 57 27 94 55 156 117 122 123
174 248 174 426 0 106 -18 181 -72 289 -71 146 -214 263 -374 306 -69 19 -371
29 -474 15z"/>
</g>
</svg>
