<?xml version="1.0" standalone="no"?>
<!DOCTYPE svg PUBLIC "-//W3C//DTD SVG 20010904//EN"
 "http://www.w3.org/TR/2001/REC-SVG-20010904/DTD/svg10.dtd">
<svg version="1.0" xmlns="http://www.w3.org/2000/svg"
 width="832.000000pt" height="256.000000pt" viewBox="0 0 832.000000 256.000000"
 preserveAspectRatio="xMidYMid meet">

<g transform="translate(0.000000,256.000000) scale(0.100000,-0.100000)"
fill="#FFFFFF" stroke="none">
<path d="M598 2120 c-85 -15 -164 -58 -227 -126 -79 -84 -104 -149 -105 -269
-1 -83 2 -96 32 -157 38 -78 101 -138 182 -177 53 -25 63 -26 265 -29 l211 -3
77 115 c42 64 77 120 77 126 0 6 -86 10 -240 10 -260 0 -293 5 -325 53 -41 63
-24 139 38 177 30 19 53 20 362 20 l330 1 55 79 c49 70 132 150 174 166 9 3
16 10 16 15 0 11 -856 10 -922 -1z"/>
<path d="M1815 2124 c-11 -2 -45 -9 -75 -15 -67 -14 -180 -69 -238 -116 -24
-19 -60 -58 -82 -87 -53 -71 -603 -974 -648 -1065 -35 -71 -37 -80 -37 -175 0
-90 3 -108 28 -161 70 -149 252 -245 412 -218 86 15 145 44 214 109 51 47 75
86 208 331 83 153 192 357 243 453 50 96 100 184 111 195 19 19 19 19 19 -53
0 -39 2 -72 5 -72 17 0 307 239 303 250 -2 4 -39 36 -83 71 -44 34 -110 87
-146 116 -36 29 -69 53 -73 53 -3 0 -6 -29 -6 -65 l0 -65 -52 0 c-66 0 -143
-34 -182 -80 -15 -18 -43 -65 -63 -104 -20 -39 -110 -208 -201 -376 -91 -168
-182 -337 -203 -375 -59 -109 -106 -143 -179 -129 -42 9 -86 55 -94 99 -9 46
8 84 121 265 49 80 179 295 289 478 109 184 214 351 232 372 18 21 58 51 90
67 56 28 59 28 247 28 187 0 191 0 246 -28 70 -34 152 -119 187 -194 22 -49
27 -72 27 -143 0 -71 -5 -94 -27 -142 -35 -76 -107 -151 -177 -185 -51 -25
-68 -28 -183 -32 l-128 -3 -60 -116 c-33 -64 -60 -119 -60 -124 0 -15 361 -9
425 7 166 42 333 175 408 325 176 352 -17 778 -403 886 -54 15 -369 29 -415
18z"/>
<path d="M5780 1549 c-102 -20 -170 -101 -170 -205 0 -107 49 -151 219 -194
132 -33 158 -53 145 -106 -12 -48 -99 -69 -168 -40 -30 12 -70 52 -78 77 -4
12 -106 3 -128 -11 -23 -14 6 -89 54 -137 55 -55 129 -77 235 -71 114 7 189
54 225 140 41 98 -11 205 -119 246 -16 6 -68 21 -115 32 -93 24 -120 41 -120
77 0 89 164 99 200 12 l13 -31 61 7 c83 9 87 12 71 57 -28 84 -84 131 -174
148 -62 11 -88 11 -151 -1z"/>
<path d="M6433 1550 c-100 -21 -178 -85 -215 -178 -18 -47 -22 -77 -22 -167 0
-97 2 -116 25 -165 14 -30 38 -69 53 -87 65 -77 214 -112 331 -79 73 22 153
94 186 169 20 45 24 68 24 167 0 105 -3 120 -28 172 -31 64 -90 122 -151 148
-50 22 -147 31 -203 20z m154 -151 c66 -41 100 -176 69 -281 -46 -159 -236
-170 -297 -18 -19 49 -17 166 4 222 21 54 42 75 94 94 44 15 84 10 130 -17z"/>
<path d="M3017 1543 c-4 -3 -7 -32 -7 -64 l0 -58 93 -3 92 -3 5 -268 5 -269
70 -1 70 -1 5 270 5 269 98 3 98 3 -3 62 -3 62 -261 3 c-143 1 -263 -1 -267
-5z"/>
<path d="M3640 1210 c0 -308 2 -342 16 -336 9 3 42 6 75 6 l59 0 0 115 0 115
48 0 48 0 63 -121 63 -120 82 4 c44 2 80 8 79 13 -1 5 -32 63 -69 128 -50 89
-64 121 -53 124 30 10 98 92 105 127 21 113 -21 208 -111 254 -47 25 -60 26
-227 29 l-178 4 0 -342z m327 190 c23 -14 34 -29 39 -56 14 -76 -44 -118 -156
-112 l-55 3 -3 93 -3 92 73 0 c55 0 81 -5 105 -20z"/>
<path d="M4427 1508 c-44 -117 -216 -622 -213 -625 4 -5 60 -6 117 -4 36 1 37
3 60 67 l24 67 120 -1 120 -1 23 -62 c13 -35 25 -65 27 -68 10 -9 143 -12 149
-3 6 10 -42 151 -166 492 l-63 175 -91 3 -91 3 -16 -43z m179 -370 c-6 -4 -44
-8 -83 -8 -53 0 -73 4 -73 13 0 11 59 195 76 237 4 9 24 -38 49 -110 29 -86
39 -127 31 -132z"/>
<path d="M4930 1215 l0 -335 70 0 70 0 2 210 3 211 145 -213 145 -212 65 1 65
1 0 334 0 333 -73 3 -73 3 3 -201 c2 -110 0 -199 -3 -198 -3 2 -59 82 -124
178 -156 232 -144 220 -227 220 l-68 0 0 -335z"/>
<path d="M6909 1225 c-1 -179 -2 -330 -3 -337 -1 -8 19 -13 59 -15 94 -3 90
-9 91 122 0 63 2 116 5 118 2 2 24 2 50 -1 l45 -4 62 -117 62 -117 74 -2 c42
-1 77 2 81 8 3 6 -23 65 -60 132 -41 77 -61 124 -54 127 7 2 28 19 49 37 81
74 80 224 -2 306 -55 55 -111 68 -300 68 l-158 0 -1 -325z m321 177 c65 -33
64 -125 -3 -154 -18 -7 -63 -13 -102 -13 l-70 0 -3 79 c-2 44 -1 85 2 93 8 20
132 17 176 -5z"/>
<path d="M7705 1540 c-9 -14 -226 -633 -228 -650 -1 -10 6 -15 21 -14 12 0 47
1 76 2 l55 2 17 61 c12 44 23 63 38 67 12 4 71 6 132 4 l111 -3 18 -60 c10
-33 22 -62 27 -66 19 -11 140 -9 145 2 2 7 -46 153 -107 326 -61 173 -113 320
-115 327 -5 15 -181 17 -190 2z m140 -278 c20 -62 35 -116 32 -119 -10 -9
-156 -13 -161 -4 -8 12 75 254 84 244 4 -4 24 -59 45 -121z"/>
</g>
</svg>
